name analog
datacolumns 19
datarows 27
range 0.156 0.169
endheader
time	ground_force_vx	ground_force_vy	ground_force_vz	ground_force_px	ground_force_py	ground_force_pz	l_ground_force_vx	l_ground_force_vy	l_ground_force_vz	l_ground_force_px	l_ground_force_py	l_ground_force_pz	ground_torque_x	ground_torque_y	ground_torque_z	l_ground_torque_x	l_ground_torque_y	l_ground_torque_z
0.156	-0.0	-0.0	-0.0	8.320590019226074	41.12682342529297	-251.165283203125	5.8274126052856445	-40.70448303222656	-261.8170166015625	-35.20872116088867	16.040512084960938	76.0555191040039	-0.0	-0.0	-0.0	46037.60546875	-22979.703125	2036.0264892578125
0.1565	-0.0	-0.0	-0.0	7.65998363494873	41.44564056396485	-252.67337036132807	4.7272491455078125	-40.85393905639648	-261.81658935546875	-35.412086486816406	16.168655395507812	76.257568359375	-0.0	-0.0	-0.0	46421.59375	-23007.021484375	1873.8363037109373
0.157	-0.0	-0.0	-0.0	7.0219502449035645	42.22215270996094	-254.13970947265625	4.40997838973999	-40.68935394287109	-265.8523254394531	-35.31037902832031	16.028076171875	75.65647888183594	-0.0	-0.0	-0.0	47141.5859375	-22915.115234375	1522.761962890625
0.1575	-0.0	-0.0	-0.0	6.575935363769531	42.77139663696289	-255.29620361328125	4.041790962219238	-40.57715225219727	-266.7518310546875	-35.259891510009766	16.156213760375977	76.20536041259766	-0.0	-0.0	-0.0	47156.0234375	-22861.296875	1399.372314453125
0.158	-0.0	-0.0	-0.0	6.512367248535156	43.77703094482422	-254.4922790527344	3.3200387954711914	-40.23614501953125	-268.2969970703125	-35.361175537109375	15.989373207092283	75.8548583984375	-0.0	-0.0	-0.0	47514.53515625	-22926.205078125	1039.2313232421875
0.1585	-0.0	-0.0	-0.0	6.0407304763793945	44.66744613647461	-253.7337951660156	3.2436838150024414	-39.98520660400391	-268.64630126953125	-35.34869384765625	16.104145050048828	75.8056640625	-0.0	-0.0	-0.0	47548.640625	-22772.451171875	907.0595703125
0.159	-0.0	-0.0	-0.0	5.123117446899414	44.64176940917969	-253.3311462402344	2.6861801147460938	-40.36244583129883	-269.3960876464844	-35.208343505859375	16.091625213623047	76.05625915527344	-0.0	-0.0	-0.0	47862.19140625	-22861.115234375	555.275146484375
0.1595	-0.0	-0.0	-0.0	4.001786708831787	44.66700744628906	-249.95040893554688	1.43191397190094	-40.3754997253418	-270.4938049316406	-35.14423370361328	16.18163299560547	76.15616607666016	-0.0	-0.0	-0.0	48316.453125	-23112.783203125	308.57733154296875
0.16	-0.0	-0.0	-0.0	2.982213020324707	44.34882736206055	-249.54672241210935	0.3929024934768677	-40.65322113037109	-275.28106689453125	-35.33609771728516	16.091554641723633	75.50546264648438	-0.0	-0.0	-0.0	49363.05859375	-23376.71875	-162.61520385742188
0.1605	-0.0	-0.0	-0.0	2.3578052520751958	44.23409652709961	-248.38482666015625	-0.2535584568977356	-40.388221740722656	-277.6752014160156	-35.15718078613281	16.168914794921875	76.30769348144531	-0.0	-0.0	-0.0	49538.6953125	-23902.205078125	-442.6697998046875
0.161	-0.0	-0.0	-0.0	2.1670656204223637	43.30499649047852	-246.5710906982422	-1.0392459630966189	-40.51448440551758	-279.6198425292969	-35.233489990234375	15.937850952148438	75.85386657714844	-0.0	-0.0	-0.0	50235.56640625	-24028.15234375	-858.531982421875
0.1615	-0.0	-0.0	-0.0	2.114811420440674	42.92240905761719	-246.31529235839844	-2.002128839492798	-40.81753921508789	-279.420654296875	-35.11851501464844	16.080158233642578	75.65399169921875	-0.0	-0.0	-0.0	50054.125	-24023.708984375	-1325.4512939453125
0.162	-0.0	-0.0	-0.0	3.1741456985473637	42.96197509765625	-248.6431121826172	-3.6492760181427	-40.86784362792969	-278.4760131835937	-35.23326873779297	16.220043182373047	74.54841613769531	-0.0	-0.0	-0.0	49773.40625	-23757.556640625	-1741.92041015625
0.1625	-0.0	-0.0	-0.0	3.963891506195069	41.96709442138672	-249.9512634277344	-5.259109973907471	-41.2080307006836	-276.1836853027344	-35.36142349243164	16.554412841796875	76.20951080322266	-0.0	-0.0	-0.0	49497.99609375	-23164.87890625	-2277.091796875
0.163	-0.0	-0.0	-0.0	4.650747299194336	40.99998474121094	-250.75775146484372	-6.994848251342773	-41.864479064941406	-273.28680419921875	-35.21944046020508	16.01459503173828	75.20296478271484	-0.0	-0.0	-0.0	48834.625	-22764.091796875	-2710.587158203125
0.1635	-0.0	-0.0	-0.0	5.022841453552246	40.82172393798828	-251.464111328125	-8.566457748413086	-42.50773620605469	-271.1919860839844	-35.13191604614258	15.924625396728516	76.66030883789062	-0.0	-0.0	-0.0	48604.65234375	-22835.126953125	-3258.66650390625
0.164	-0.0	-0.0	-0.0	5.889984130859375	40.04471969604492	-251.26466369628903	-10.556583404541016	-42.78419494628906	-272.1408996582031	-35.40032958984375	16.11842918395996	75.21192169189453	-0.0	-0.0	-0.0	48705.3203125	-22893.2265625	-3721.86865234375
0.1645	-0.0	-0.0	-0.0	5.338876724243164	39.79103469848633	-252.8768310546875	-12.26712417602539	-43.03759002685547	-273.0365600585937	-35.28572463989258	16.157852172851562	76.16686248779297	-0.0	-0.0	-0.0	49180.47265625	-23063.447265625	-4291.27783203125
0.165	-0.0	-0.0	-0.0	4.973151683807373	38.988895416259766	-252.7674560546875	-13.358960151672363	-42.89943313598633	-273.2781982421875	-35.20751190185547	16.256425857543945	76.56233215332031	-0.0	-0.0	-0.0	49381.12109375	-23207.296875	-4677.6513671875
0.1655	-0.0	-0.0	-0.0	4.808961868286133	38.23970413208008	-252.52365112304688	-12.874265670776367	-42.17918395996094	-273.3315124511719	-35.54014205932617	16.00044059753418	75.59666442871094	-0.0	-0.0	-0.0	49419.40625	-23462.359375	-4880.16552734375
0.166	-0.0	-0.0	-0.0	4.853438854217529	37.192413330078125	-251.6625061035156	-12.621871948242188	-42.09078598022461	-270.3962097167969	-35.2215461730957	16.360204696655273	75.04810333251953	-0.0	-0.0	-0.0	48816.33203125	-22776.51953125	-5117.23828125
0.1665	-0.0	-0.0	-0.0	5.466869354248047	36.60759353637695	-250.10731506347656	-12.408570289611816	-41.53599548339844	-267.4071044921875	-35.46488952636719	16.025447845458984	76.52122497558594	-0.0	-0.0	-0.0	48276.16796875	-22532.814453125	-5396.89697265625
0.167	-0.0	-0.0	-0.0	6.498127937316895	36.201171875	-250.0375823974609	-12.014917373657228	-41.18267059326172	-262.56201171875	-35.504371643066406	15.845355033874512	74.99088287353516	-0.0	-0.0	-0.0	47524.6796875	-22272.5390625	-5591.134765625
0.1675	-0.0	-0.0	-0.0	7.365166664123535	35.56303405761719	-250.10821533203125	-11.990155220031738	-41.4334602355957	-262.1151123046875	-35.142677307128906	16.194534301757812	74.541015625	-0.0	-0.0	-0.0	47189.609375	-21796.71875	-5875.9208984375
0.168	-0.0	-0.0	-0.0	8.346412658691406	35.449005126953125	-247.11148071289065	-12.025561332702637	-41.3203125	-262.1152648925781	-35.50466537475586	16.30959701538086	76.40968322753906	-0.0	-0.0	-0.0	47468.6796875	-21947.59375	-6082.31689453125
0.1685	-0.0	-0.0	-0.0	8.75717544555664	34.7007942199707	-248.5567779541016	-11.852089881896973	-41.1475715637207	-264.2511291503906	-35.296478271484375	16.22988510131836	75.103759765625	-0.0	-0.0	-0.0	48044.203125	-22063.240234375	-6121.388671875
0.169	-0.0	-0.0	-0.0	9.580565452575684	34.81051254272461	-249.40306091308597	-11.192063331604004	-41.27085876464844	-266.84918212890625	-35.41548156738281	16.16950798034668	75.82422637939453	-0.0	-0.0	-0.0	48581.0625	-22400.921875	-6353.42529296875
